# xmcd
#
# Track frame offsets: 
#        150
#        15669
#        34597
#        43985
#        58154
#        71645
#        83074
#        97301
#        111802
#        135810
#        151280
#        169142
#        184640
#        203749
#        218286
#        235398
#        254106
#        267001
#        280013
#        293899
#        313470
#        335903
#
# Disc length: 4781 seconds
#
# Revision: 4
# Processed by: cddbd v1.5.2PL0 Copyright (c) Steve Scherf et al.
# Submitted via: ExactAudioCopyFreeDBPlugin 1.0
#
DISCID=4a12ab16
DTITLE=Lightnin'  Hopkins - Fishing Clothes: The Jewel Recordings 1965
DTITLE=69 [CD2]
DYEAR=2001
DGENRE=Blues
TTITLE0=Walk Me
TTITLE1=Little School Girl
TTITLE2=Let Me Play With Your Poodle
TTITLE3=Katie Mae
TTITLE4=Little Boy Blue
TTITLE5=Pneumonia Blues
TTITLE6=Sail On Little Girl
TTITLE7=West Texas Blues
TTITLE8=A Death In The Family
TTITLE9=Huntin' In The Morning
TTITLE10=Letter To My Back Door Friend
TTITLE11=Love Me This Morning
TTITLE12=Ride In Your New Automobile
TTITLE13=Breakfast Time
TTITLE14=You're Too Fast
TTITLE15=Daddy Was A Preacher
TTITLE16=I Hate I Got Married
TTITLE17=I'm Coming Home
TTITLE18=Jail House Blues
TTITLE19=Lovin' Arms
TTITLE20=Rock Me Mama
TTITLE21=Mr. Charlie Parts 1 and 2
EXTD=YEAR: 2001
EXTT0=
EXTT1=
EXTT2=
EXTT3=
EXTT4=
EXTT5=
EXTT6=
EXTT7=
EXTT8=
EXTT9=
EXTT10=
EXTT11=
EXTT12=
EXTT13=
EXTT14=
EXTT15=
EXTT16=
EXTT17=
EXTT18=
EXTT19=
EXTT20=
EXTT21=
PLAYORDER=
